<?xml version="1.0" standalone="no"?>
<!DOCTYPE svg PUBLIC "-//W3C//DTD SVG 20010904//EN"
 "http://www.w3.org/TR/2001/REC-SVG-20010904/DTD/svg10.dtd">
<svg version="1.0" xmlns="http://www.w3.org/2000/svg"
 width="458.000000pt" height="458.000000pt" viewBox="0 0 458.000000 458.000000"
 preserveAspectRatio="xMidYMid meet">
<metadata>
Created by potrace 1.14, written by Peter Selinger 2001-2017
</metadata>
<g transform="translate(0.000000,458.000000) scale(0.100000,-0.100000)"
fill="#000000" stroke="none">
<path d="M2120 4071 c-85 -17 -207 -102 -282 -196 -135 -167 -184 -408 -114
-557 14 -30 26 -58 26 -62 0 -4 -20 -28 -44 -54 -183 -195 -423 -588 -516
-847 -29 -80 -34 -105 -38 -221 -4 -111 -1 -142 17 -208 44 -159 120 -271 246
-361 34 -25 67 -45 72 -45 6 0 18 -8 27 -19 15 -16 15 -20 2 -33 -8 -8 -35
-18 -60 -21 -150 -21 -255 -155 -256 -325 0 -88 19 -131 88 -197 l47 -45 0
-138 c-1 -139 -16 -217 -61 -304 -18 -36 -18 -38 9 -38 14 0 28 11 40 31 14
25 20 29 31 20 8 -7 12 -21 9 -31 -5 -19 1 -20 146 -20 l151 0 0 130 c0 112 3
137 21 175 12 25 27 45 34 45 38 0 75 -99 75 -205 0 -38 3 -87 6 -108 l7 -37
692 0 693 0 6 22 c3 13 6 47 6 76 0 28 5 52 10 52 6 0 10 -5 10 -11 0 -6 14
-40 31 -75 l32 -64 168 0 c93 0 169 3 169 8 0 4 -15 32 -33 62 -31 51 -40 70
-80 160 -25 56 -55 152 -70 226 l-14 68 42 45 c71 77 89 122 89 226 0 78 -4
98 -28 150 -53 111 -189 214 -305 231 -25 4 -49 8 -53 11 -4 2 15 33 43 69 88
117 128 235 136 408 18 359 -186 796 -529 1132 -119 117 -206 184 -301 234
-56 29 -67 39 -63 55 39 161 44 218 25 319 -33 181 -195 301 -359 267z m-67
-127 c14 -14 -15 -44 -49 -50 -49 -9 -63 8 -28 35 26 20 64 28 77 15z m-113
-83 c-1 -20 -52 -85 -86 -109 -21 -16 -45 -40 -53 -55 -12 -23 -11 -30 8 -62
36 -61 24 -175 -18 -175 -16 0 -21 9 -27 46 -19 127 26 268 107 338 35 30 70
39 69 17z m-33 -158 c6 -17 -36 -38 -49 -25 -17 17 -1 44 24 40 12 -2 23 -8
25 -15z m538 -333 c3 -5 14 -10 23 -10 9 0 25 -7 35 -14 16 -12 16 -15 2 -29
-8 -9 -15 -20 -15 -26 0 -19 -20 -23 -50 -9 -17 7 -30 16 -30 20 0 5 -9 8 -20
8 -26 0 -25 14 2 45 23 26 43 32 53 15z m-3 -404 c74 -35 127 -110 114 -162
-10 -38 -56 -80 -102 -93 -71 -20 -177 -39 -368 -66 -230 -33 -368 -32 -413 1
-58 43 -99 136 -76 173 17 28 112 86 161 99 26 7 61 17 77 22 151 46 531 62
607 26z m-928 -126 c-74 -127 -155 -317 -192 -455 -45 -164 -50 -320 -14 -429
31 -91 65 -139 167 -233 75 -68 83 -78 65 -85 -13 -5 -20 -16 -20 -33 0 -14
-4 -25 -8 -25 -18 0 -127 84 -171 132 -97 106 -141 224 -141 380 1 158 31 259
147 491 42 83 91 176 109 205 19 29 34 57 34 62 0 6 5 10 10 10 6 0 10 4 10
10 0 5 8 19 17 30 32 37 25 4 -13 -60z m765 -742 c18 -152 7 -174 -89 -181
l-35 -2 -3 131 c-2 127 -2 131 20 142 13 6 39 11 59 11 l35 1 13 -102z m-149
-47 c0 -72 -4 -132 -9 -135 -16 -10 -35 3 -61 41 -20 30 -26 51 -29 115 -4
103 -2 108 54 108 l45 0 0 -129z m-495 -477 c25 -31 44 -59 41 -61 -3 -3 -32
5 -64 18 -57 22 -59 24 -46 43 8 11 14 28 14 38 0 10 2 18 4 18 3 0 26 -25 51
-56z m-50 -124 c20 0 28 -19 15 -35 -7 -9 -8 -15 0 -20 5 -3 10 -15 10 -26 0
-38 50 -101 103 -128 15 -8 27 -18 27 -23 0 -4 4 -8 10 -8 5 0 33 -11 62 -24
72 -33 136 -46 311 -62 169 -15 562 42 659 96 10 6 25 10 33 10 8 0 15 5 15
10 0 6 9 10 20 10 11 0 20 5 20 10 0 6 5 10 10 10 10 0 22 8 55 38 13 11 15
10 15 -10 0 -20 -13 -31 -72 -61 -40 -21 -80 -37 -88 -37 -9 0 -20 -4 -25 -8
-19 -16 -143 -47 -281 -71 -79 -14 -477 -14 -546 0 -78 16 -162 40 -172 50 -6
5 -20 9 -33 9 -13 0 -23 5 -23 10 0 6 -9 10 -20 10 -11 0 -20 5 -20 10 0 6 -5
10 -11 10 -14 0 -79 65 -79 79 0 6 -4 11 -10 11 -6 0 -10 34 -9 83 0 45 3 76
6 70 2 -7 11 -13 18 -13z m-272 -152 c-16 -24 -34 -59 -41 -79 -15 -43 -16
-159 -2 -159 6 0 10 -10 9 -22 0 -16 -2 -18 -6 -8 -3 8 -11 18 -16 22 -6 3
-11 42 -11 86 -1 83 9 115 52 162 12 14 22 28 22 32 0 5 5 8 10 8 6 0 -2 -19
-17 -42z m419 -360 c28 -22 31 -55 8 -78 -19 -19 -22 -19 -50 -5 -16 8 -34 25
-41 36 -22 41 43 78 83 47z m-335 -350 c-6 -69 -22 -107 -39 -90 -4 4 -1 34 7
65 8 32 15 69 15 83 0 16 4 23 11 18 8 -5 10 -30 6 -76z"/>
</g>
</svg>
